<svg xmlns="http://www.w3.org/2000/svg" width="85" height="181" viewBox="0 0 85 181">
  <defs>
    <style>
      .cls-1 {
        fill: #353535;
      }

      .cls-1, .cls-7 {
        fill-opacity: 0.99;
      }

      .cls-1, .cls-2, .cls-3, .cls-4, .cls-5, .cls-6, .cls-7, .cls-8, .cls-9 {
        fill-rule: evenodd;
      }

      .cls-2, .cls-4, .cls-5, .cls-7, .cls-9 {
        fill: #fff;
      }

      .cls-3 {
        fill: #343434;
      }

      .cls-4 {
        opacity: 0.5;
      }

      .cls-5 {
        opacity: 0.71;
      }

      .cls-6 {
        fill: #e84d37;
      }

      .cls-8 {
        fill: #333;
      }

      .cls-9 {
        opacity: 0.2;
      }
    </style>
  </defs>
  <path id="Вход_copy" data-name="Вход copy" class="cls-1" d="M27.99,23.968v-0.96a3,3,0,0,1,2.991-3H42.006a3,3,0,0,1,2.991,3V35.985a3,3,0,0,1-2.991,3H30.981a3,3,0,0,1-2.991-3V35h1.994v2h12.96V22H29.984v1.969H27.99Zm-3,8.046h6.01v2.743l7.006-5.3-7.006-5.3V26.9h-6.01v5.113Z"/>
  <path id="Корзина" class="cls-2" d="M19.576,45.46l-1.2,8.912a2.033,2.033,0,0,1-1.883,1.635H5.61a2.027,2.027,0,0,1-1.879-1.635L2.262,44.085a3.678,3.678,0,0,1-.137-1.055H0a1,1,0,0,1-1-1,1,1,0,0,1,1-1H4a1,1,0,0,1,1,1,0.99,0.99,0,0,1-.9.979H18.067C19.172,43.01,19.84,44.141,19.576,45.46ZM5.731,53.978l-1.313-9H17.625s-0.031.2-.031,0.2l-1.186,8.788c-0.008.011-.009,0.014,0,0.014H5.731Zm0.514,3.009a1.874,1.874,0,1,1-1.874,1.874A1.874,1.874,0,0,1,6.245,56.987Zm9,0a1.874,1.874,0,1,1-1.874,1.874A1.874,1.874,0,0,1,15.246,56.987Z"/>
  <path id="Корзина-2" data-name="Корзина" class="cls-3" d="M45.95,44.492l-1.225,9.039a2.068,2.068,0,0,1-1.917,1.658H31.73a2.062,2.062,0,0,1-1.913-1.658L28.321,43.1a3.709,3.709,0,0,1-.139-1.069H26.018a1.014,1.014,0,1,1,0-2.029h4.073a1.016,1.016,0,0,1,1.018,1.014,1.006,1.006,0,0,1-.914.993H44.413C45.539,42.007,46.219,43.154,45.95,44.492Zm-14.1,8.639L30.517,44H43.963s-0.032.2-.032,0.2l-1.208,8.913c-0.008.011-.009,0.014,0,0.014H31.854Zm0.524,3.052a1.9,1.9,0,1,1-1.908,1.9A1.9,1.9,0,0,1,32.377,56.183Zm9.164,0a1.9,1.9,0,1,1-1.908,1.9A1.9,1.9,0,0,1,41.541,56.183Z"/>
  <path id="Твитер" class="cls-2" d="M15.49,65.009A15.489,15.489,0,1,1-.014,80.5,15.5,15.5,0,0,1,15.49,65.009ZM24.518,75.68a7.218,7.218,0,0,1-2.067.566,3.607,3.607,0,0,0,1.582-1.989,7.2,7.2,0,0,1-2.285.872,3.6,3.6,0,0,0-6.132,3.279A10.222,10.222,0,0,1,8.2,74.652a3.6,3.6,0,0,0,1.114,4.8A3.585,3.585,0,0,1,7.682,79c0,0.015,0,.03,0,0.045a3.6,3.6,0,0,0,2.887,3.525,3.612,3.612,0,0,1-1.625.062,3.6,3.6,0,0,0,3.362,2.5,7.272,7.272,0,0,1-5.328,1.489,10.237,10.237,0,0,0,15.756-8.614q0-.234-0.011-0.465A7.312,7.312,0,0,0,24.518,75.68Z"/>
  <path id="Обводка" class="cls-4" d="M18.5,134.987A18.51,18.51,0,1,1-.007,153.5,18.51,18.51,0,0,1,18.5,134.987Zm0,2.911a15.6,15.6,0,1,1-15.6,15.6A15.6,15.6,0,0,1,18.505,137.9Z"/>
  <path id="Обводка-2" data-name="Обводка" class="cls-5" d="M59.988,135.01a20,20,0,1,1-20,20A20,20,0,0,1,59.988,135.01Zm0,4.138a15.865,15.865,0,1,1-15.865,15.866A15.865,15.865,0,0,1,59.99,139.148Z"/>
  <path id="Инста" class="cls-2" d="M50.49,65.009A15.489,15.489,0,1,1,34.986,80.5,15.5,15.5,0,0,1,50.49,65.009Zm6.2,23.3a1.723,1.723,0,0,0,1.724-1.722V74.44a1.723,1.723,0,0,0-1.724-1.722H44.506a1.723,1.723,0,0,0-1.724,1.722V86.592a1.723,1.723,0,0,0,1.724,1.722H56.686ZM55.328,79.33a4.863,4.863,0,1,1-9.415,0H44.55v6.7a0.6,0.6,0,0,0,.6.6H56.087a0.6,0.6,0,0,0,.6-0.6v-6.7S56.2,79.332,55.328,79.33Zm-4.707-1.584a2.81,2.81,0,1,1,0,5.6A2.8,2.8,0,1,1,50.621,77.746Zm3.654-3.273h1.842a0.6,0.6,0,0,1,.6.6v1.84a0.6,0.6,0,0,1-.6.6H54.275a0.6,0.6,0,0,1-.6-0.6v-1.84A0.6,0.6,0,0,1,54.275,74.473Z"/>
  <path id="ФБ" class="cls-2" d="M15.49,100.009A15.489,15.489,0,1,1-.014,115.5,15.5,15.5,0,0,1,15.49,100.009Zm0.764,24.666V115.5h2.709l0.282-3.049H16.254l0-1.832c0-.883.083-1.24,1.351-1.24h1.743V106H16.594c-3.255,0-4.033,1.526-4.033,4.286v2.17H10.694V115.5H12.56v9.171h3.694Z"/>
  <path id="ВК" class="cls-2" d="M50.49,100.009a15.489,15.489,0,1,1-15.5,15.489A15.5,15.5,0,0,1,50.49,100.009Zm5.9,18.016a3.075,3.075,0,0,0-.748-2.175,3.67,3.67,0,0,0-1.992-1.068v-0.071A2.892,2.892,0,0,0,55,113.582a3.148,3.148,0,0,0,.493-1.747,3.07,3.07,0,0,0-.357-1.5,2.6,2.6,0,0,0-1.078-1.036,4.25,4.25,0,0,0-1.429-.471,16.242,16.242,0,0,0-2.242-.113H45.641v13.42h5.377a8.688,8.688,0,0,0,2.3-.253,4.738,4.738,0,0,0,1.666-.845,3.6,3.6,0,0,0,1.019-1.252,3.888,3.888,0,0,0,.379-1.761h0Zm-4.321-5.513a1.517,1.517,0,0,0-.167-0.668,1,1,0,0,0-.52-0.495,2.072,2.072,0,0,0-.788-0.16q-0.457-.013-1.358-0.013H49v2.84h0.425c0.576,0,.982-0.006,1.214-0.018a1.974,1.974,0,0,0,.718-0.188,1.091,1.091,0,0,0,.557-0.522,1.863,1.863,0,0,0,.155-0.776h0Zm0.846,5.451a1.631,1.631,0,0,0-.252-0.972,1.524,1.524,0,0,0-.758-0.531,2.486,2.486,0,0,0-.843-0.133c-0.357-.009-0.838-0.013-1.438-0.013H49v3.36H49.18q1.316,0,1.82-.019a2.832,2.832,0,0,0,1.028-.242,1.344,1.344,0,0,0,.671-0.581A1.763,1.763,0,0,0,52.912,117.963Z"/>
  <path id="Корзина_заполнена" data-name="Корзина заполнена" class="cls-6" d="M50,50H65L63.636,60l-12.521-.122Z"/>
  <path id="Лупа" class="cls-2" d="M12.155,10.747H11.4l-0.263-.261a6.217,6.217,0,1,0-.675.675l0.263,0.262v0.755l4.772,4.76,1.424-1.422Zm-5.731,0a4.291,4.291,0,1,1,4.3-4.291A4.294,4.294,0,0,1,6.424,10.747Z"/>
  <path id="Вход" class="cls-7" d="M3,23.968v-0.96a3,3,0,0,1,3-3H17.059a3,3,0,0,1,3,3V35.986a3,3,0,0,1-3,3H6a3,3,0,0,1-3-3V35H5v2H18V22H5v1.968H3Zm-3,8.046H6.024v2.743l7.027-5.3-7.027-5.3V26.9H-0.005v5.114Z"/>
  <path id="Лупа-2" data-name="Лупа" class="cls-8" d="M37.159,10.693H36.387l-0.268-.266a6.329,6.329,0,1,0-.688.688L35.7,11.381v0.77L40.561,17l1.45-1.449Zm-5.838,0A4.372,4.372,0,1,1,35.7,6.322,4.375,4.375,0,0,1,31.321,10.693Z"/>
  <path id="Маркер" class="cls-2" d="M49.993-.013h8.022L54.063,5.012H53.937Z"/>
  <path id="Маркер-2" data-name="Маркер" class="cls-8" d="M49.993,9.987h8.022l-3.952,5.025H53.937Z"/>
  <path id="_" data-name="&lt;" class="cls-9" d="M57.987,36.437L52.725,42l5.256,5.552-1.366,1.443-6.624-7,1.366-1.443,0,0,5.262-5.559Z"/>
  <path id="_2" data-name="&gt;" class="cls-2" d="M50.02,21.434l1.366-1.447L58.01,27l-1.366,1.446Zm1.36,12.582-1.366-1.446,6.624-7.014L58,27Z"/>
</svg>
